<?xml version="1.0" standalone="no"?>
<!DOCTYPE svg PUBLIC "-//W3C//DTD SVG 20010904//EN"
 "http://www.w3.org/TR/2001/REC-SVG-20010904/DTD/svg10.dtd">
<svg version="1.0" xmlns="http://www.w3.org/2000/svg"
 width="300.000000pt" height="93.000000pt" viewBox="0 0 300.000000 93.000000"
 preserveAspectRatio="xMidYMid meet">
<metadata>
Created by potrace 1.10, written by Peter Selinger 2001-2011
</metadata>
<g transform="translate(0.000000,93.000000) scale(0.100000,-0.100000)"
fill="#007a50" stroke="none">
<path d="M260 887 c-19 -22 -26 -23 -100 -19 -74 4 -80 3 -104 -21 -53 -53
-21 -156 39 -129 25 12 43 38 32 48 -3 3 -14 1 -25 -5 -23 -13 -52 -5 -52 14
0 7 10 25 22 40 21 26 24 27 97 23 70 -4 131 -26 131 -47 0 -3 -22 -14 -49
-24 -66 -23 -146 -88 -173 -140 -16 -31 -22 -59 -21 -107 0 -148 93 -251 240
-266 72 -8 127 7 189 49 149 100 130 332 -31 377 -71 20 -134 8 -168 -30 -41
-46 -35 -110 17 -177 32 -41 35 -49 21 -59 -8 -6 -15 -21 -15 -33 0 -19 3 -20
20 -11 29 16 43 48 51 120 8 79 1 104 -17 61 -16 -37 -33 -39 -62 -8 -29 31
-28 53 7 88 51 50 142 33 178 -34 26 -48 24 -169 -5 -224 -33 -63 -75 -88
-147 -88 -75 0 -120 25 -149 80 -17 33 -21 58 -21 145 0 90 4 112 24 153 44
89 140 129 242 102 30 -8 66 -15 81 -15 94 0 138 97 64 145 -31 21 -66 5 -66
-29 0 -26 27 -43 44 -26 14 14 36 12 36 -3 0 -24 -35 -47 -71 -47 -25 0 -57
15 -122 60 -49 33 -95 60 -103 60 -8 0 -23 -10 -34 -23z m90 -59 c0 -12 -24
-10 -38 4 -20 20 -13 28 13 16 14 -6 25 -15 25 -20z m-228 -315 c-2 -57 -7
-82 -13 -72 -10 16 -12 119 -3 143 14 35 19 12 16 -71z"/>
<path d="M1718 823 c-33 -35 -35 -40 -22 -57 18 -25 20 -135 2 -137 -7 -1 -36
-2 -64 -3 -57 -1 -77 -14 -104 -65 -26 -53 -33 -113 -20 -177 20 -98 81 -130
156 -84 l32 21 7 -21 c5 -16 15 -20 46 -20 39 0 39 0 24 24 -14 21 -16 61 -13
290 2 146 1 266 -2 266 -3 0 -22 -17 -42 -37z m-53 -256 c77 -77 42 -271 -43
-241 -42 15 -76 85 -76 160 0 111 53 147 119 81z"/>
<path d="M992 606 c-30 -29 -32 -35 -23 -60 16 -41 14 -181 -4 -223 -8 -19
-15 -37 -15 -39 0 -2 25 -4 56 -4 55 0 55 0 40 22 -23 32 -23 240 -1 262 28
28 57 30 77 6 15 -18 21 -20 33 -10 18 15 19 42 3 58 -20 20 -60 13 -90 -15
-24 -23 -28 -24 -34 -10 -3 10 -4 24 0 32 8 23 -5 16 -42 -19z"/>
<path d="M2563 625 c-89 -38 -134 -189 -85 -282 35 -64 118 -83 169 -39 33 28
27 42 -10 25 -76 -34 -164 83 -137 182 11 40 49 89 69 89 5 0 23 -11 40 -25
l30 -26 16 24 c34 53 -20 84 -92 52z"/>
<path d="M2779 617 c-102 -67 -108 -248 -9 -314 40 -28 81 -29 139 -3 54 25
49 33 -12 21 -53 -10 -90 7 -121 54 -22 33 -26 28 102 116 63 44 73 54 70 77
-2 19 -14 33 -43 49 -51 29 -83 29 -126 0z m93 -41 c10 -11 18 -27 18 -33 0
-13 -108 -103 -124 -103 -5 0 -6 32 -4 72 5 58 10 75 28 90 25 20 52 12 82
-26z"/>
<path d="M727 579 c-51 -53 -86 -117 -87 -157 0 -31 26 -92 52 -119 26 -28 57
-29 108 -3 48 24 46 24 53 0 3 -14 14 -20 32 -20 22 0 26 3 19 18 -12 22 -12
242 0 265 6 12 4 17 -7 17 -8 0 -31 11 -51 25 -20 14 -44 25 -53 25 -9 0 -39
-23 -66 -51z m79 -15 l34 -26 0 -98 c0 -107 -1 -110 -73 -110 -50 0 -91 100
-67 163 13 33 57 97 66 97 3 0 21 -12 40 -26z"/>
<path d="M1320 613 c-55 -39 -120 -141 -120 -191 0 -68 50 -142 97 -142 13 0
41 9 63 20 48 24 46 24 53 0 3 -14 14 -20 32 -20 22 0 26 3 19 18 -13 27 -17
228 -5 251 10 17 4 23 -44 50 -64 36 -63 36 -95 14z m46 -49 l34 -26 0 -99 0
-98 -34 -6 c-52 -10 -69 -3 -93 40 -27 47 -29 82 -8 133 14 32 51 82 62 82 3
0 20 -12 39 -26z"/>
<path d="M1912 586 c-87 -82 -114 -174 -71 -246 39 -65 71 -75 139 -40 48 25
50 25 50 0 0 -16 7 -20 31 -20 26 0 30 3 23 18 -14 29 -17 241 -3 258 9 11 7
15 -7 21 -11 3 -36 17 -56 30 -21 13 -42 23 -48 23 -6 0 -32 -20 -58 -44z m74
-23 l34 -28 0 -96 c0 -106 -2 -108 -71 -109 -39 0 -79 60 -79 118 1 44 53 142
76 142 3 0 21 -12 40 -27z"/>
<path d="M2172 599 c-31 -28 -33 -33 -23 -61 16 -47 14 -188 -4 -222 -8 -15
-15 -30 -15 -32 0 -2 23 -4 50 -4 47 0 63 11 40 25 -6 4 -10 57 -10 125 0 117
0 119 27 140 67 52 133 -4 133 -115 0 -70 -22 -119 -94 -214 -55 -72 -76 -113
-76 -150 0 -32 30 -61 62 -61 25 0 22 15 -7 34 -27 18 -33 53 -13 89 6 12 37
56 68 97 104 136 129 217 96 305 -30 78 -82 95 -148 50 -20 -14 -40 -25 -44
-25 -3 0 -3 11 0 25 8 33 -2 31 -42 -6z"/>
</g>
</svg>
